<svg id="Layer_1" data-name="Layer 1" xmlns="http://www.w3.org/2000/svg" viewBox="0 0 39.53 39.67"><defs><style>.cls-1,.cls-2,.cls-4{fill:none;stroke:#4f9ed7;stroke-linecap:round;stroke-miterlimit:10;}.cls-1{stroke-width:0.95px;}.cls-2{stroke-width:2.93px;}.cls-3{fill:#000;}.cls-4{stroke-width:0.76px;}</style></defs><path class="cls-1" d="M39.26,25.21V19.7a17.91,17.91,0,1,0-35.81,0v5.51" transform="translate(-0.21 -0.33)"/><path class="cls-2" d="M6.45,9.77A17.9,17.9,0,0,1,36.2,9.69" transform="translate(-0.21 -0.33)"/><rect class="cls-3" x="3.25" y="17.74" width="4.56" height="14.29" rx="1.14"/><rect class="cls-3" x="34.49" y="17.74" width="4.56" height="14.29" rx="1.14"/><rect class="cls-3" x="1.84" y="18.56" width="0.93" height="3.35" rx="0.47"/><rect class="cls-3" y="16.88" width="1.87" height="6.71" rx="0.93"/><path class="cls-4" d="M1.14,23.27A14.71,14.71,0,0,0,15.85,38h1.3" transform="translate(-0.21 -0.33)"/><path class="cls-3" d="M23.27,38c0,.6-.5.94-1.15,1.1A29.59,29.59,0,0,1,18.3,40a1.09,1.09,0,0,1-1.15-1.14V38h0v-.89A1.09,1.09,0,0,1,18.3,36a29.59,29.59,0,0,1,3.82.92c.65.16,1.13.5,1.15,1.11Z" transform="translate(-0.21 -0.33)"/></svg>